<?xml version="1.0" encoding="UTF-8"?>
<svg width="11px" height="20px" viewBox="0 0 11 20" version="1.1" xmlns="http://www.w3.org/2000/svg" xmlns:xlink="http://www.w3.org/1999/xlink">
    <!-- Generator: Sketch 52.2 (67145) - http://www.bohemiancoding.com/sketch -->
    <title>arrow-right</title>
    <desc>Created with Sketch.</desc>
    <g id="05-Bwowers" stroke="none" stroke-width="1" fill="none" fill-rule="evenodd">
        <g id="Bwowers-0102" transform="translate(-1190.000000, -3696.000000)" fill="#B2AFAF">
            <g id="Section-3" transform="translate(0.000000, 3228.000000)">
                <g id="slider" transform="translate(80.000000, 441.000000)">
                    <path d="M1120.05859,27 C1120.14974,27 1120.23437,27.0162759 1120.3125,27.0488281 C1120.39063,27.0813804 1120.46224,27.130208 1120.52734,27.1953125 C1120.65755,27.3255215 1120.72266,27.4850251 1120.72266,27.6738281 C1120.72266,27.8626312 1120.65755,28.0221348 1120.52734,28.1523438 L1111.62109,37.0585938 L1120.41016,45.8476562 C1120.54037,45.9778652 1120.60547,46.1341137 1120.60547,46.3164062 C1120.60547,46.4986988 1120.54037,46.6549473 1120.41016,46.7851562 C1120.27995,46.9153652 1120.12044,46.9804688 1119.93164,46.9804688 C1119.74284,46.9804688 1119.58333,46.9153652 1119.45312,46.7851562 L1110.19531,37.5273438 C1110.0651,37.3971348 1110,37.2408863 1110,37.0585938 C1110,36.8763012 1110.0651,36.7200527 1110.19531,36.5898438 L1119.58984,27.1953125 C1119.65495,27.130208 1119.72982,27.0813804 1119.81445,27.0488281 C1119.89909,27.0162759 1119.98047,27 1120.05859,27 Z" id="arrow-right" transform="translate(1115.361328, 36.990234) scale(-1, 1) translate(-1115.361328, -36.990234) "></path>
                </g>
            </g>
        </g>
    </g>
</svg>