<?xml version="1.0" encoding="UTF-8"?>
<svg width="11px" height="20px" viewBox="0 0 11 20" version="1.1" xmlns="http://www.w3.org/2000/svg" xmlns:xlink="http://www.w3.org/1999/xlink">
    <!-- Generator: Sketch 52.2 (67145) - http://www.bohemiancoding.com/sketch -->
    <title>arrow-left </title>
    <desc>Created with Sketch.</desc>
    <g id="05-Bwowers" stroke="none" stroke-width="1" fill="none" fill-rule="evenodd">
        <g id="Bwowers-0102" transform="translate(-80.000000, -3696.000000)" fill="#B2AFAF">
            <g id="Section-3" transform="translate(0.000000, 3228.000000)">
                <g id="slider" transform="translate(80.000000, 441.000000)">
                    <path d="M10.0585938,27 C10.14974,27 10.2343746,27.0162759 10.3125,27.0488281 C10.3906254,27.0813804 10.4622393,27.130208 10.5273438,27.1953125 C10.6575527,27.3255215 10.7226562,27.4850251 10.7226562,27.6738281 C10.7226562,27.8626312 10.6575527,28.0221348 10.5273438,28.1523438 L1.62109375,37.0585938 L10.4101562,45.8476562 C10.5403652,45.9778652 10.6054688,46.1341137 10.6054688,46.3164062 C10.6054688,46.4986988 10.5403652,46.6549473 10.4101562,46.7851562 C10.2799473,46.9153652 10.1204437,46.9804688 9.93164062,46.9804688 C9.7428376,46.9804688 9.58333398,46.9153652 9.453125,46.7851562 L0.1953125,37.5273438 C0.0651035156,37.3971348 0,37.2408863 0,37.0585938 C0,36.8763012 0.0651035156,36.7200527 0.1953125,36.5898438 L9.58984375,27.1953125 C9.65494824,27.130208 9.72981729,27.0813804 9.81445312,27.0488281 C9.89908896,27.0162759 9.98046836,27 10.0585938,27 Z" id="arrow-left-"></path>
                </g>
            </g>
        </g>
    </g>
</svg>