<?xml version="1.0" encoding="UTF-8"?>
<svg width="16px" height="19px" viewBox="0 0 16 19" version="1.1" xmlns="http://www.w3.org/2000/svg" xmlns:xlink="http://www.w3.org/1999/xlink">
    <!-- Generator: Sketch 51.2 (57519) - http://www.bohemiancoding.com/sketch -->
    <title>arrow-down - anticon</title>
    <desc>Created with Sketch.</desc>
    <defs></defs>
    <g id="01-Cover" stroke="none" stroke-width="1" fill="none" fill-rule="evenodd">
        <g id="Cover-0101" transform="translate(-640.000000, -704.000000)" fill="#FFFFFF">
            <path d="M648.71875,705.056304 L648.71875,718.509429 L653.59375,713.446929 C653.796876,713.228178 654.039061,713.118804 654.320312,713.118804 C654.601564,713.118804 654.847655,713.216459 655.058594,713.411773 C655.269532,713.607086 655.375,713.845365 655.375,714.126616 C655.375,714.407868 655.281251,714.657865 655.09375,714.876616 L648.4375,721.767241 C648.234374,721.985993 647.988283,722.095366 647.699219,722.095366 C647.410155,722.095366 647.164064,721.985993 646.960938,721.767241 L640.28125,714.829741 C640.093749,714.626615 640,714.392243 640,714.126616 C640,713.82974 640.109374,713.579742 640.328125,713.376616 C640.531251,713.17349 640.773436,713.075835 641.054688,713.083648 C641.335939,713.09146 641.578124,713.196928 641.78125,713.400054 L646.65625,718.462554 L646.65625,705.032866 C646.65625,704.76724 646.749999,704.532867 646.9375,704.329741 C647.125001,704.126615 647.351561,704.017241 647.617188,704.001616 C647.914064,703.985991 648.171874,704.083647 648.390625,704.294585 C648.609376,704.505524 648.71875,704.759427 648.71875,705.056304 Z" id="arrow-down---anticon"></path>
        </g>
    </g>
</svg>