<?xml version="1.0" encoding="UTF-8"?>
<svg width="195px" height="28px" viewBox="0 0 195 28" version="1.1" xmlns="http://www.w3.org/2000/svg" xmlns:xlink="http://www.w3.org/1999/xlink">
    <!-- Generator: Sketch 51.2 (57519) - http://www.bohemiancoding.com/sketch -->
    <title>logo-01</title>
    <desc>Created with Sketch.</desc>
    <defs></defs>
    <g id="00-UI-Kit" stroke="none" stroke-width="1" fill="none" fill-rule="evenodd">
        <g id="header/light" transform="translate(-56.000000, -60.000000)">
            <g id="header" transform="translate(0.000000, 18.000000)">
                <g id="logo-01" transform="translate(56.000000, 42.000000)">
                    <path d="M13.3555377,21.2086 C14.2753491,20.2955565 14.7168585,19.1999043 14.7168585,17.9222522 C14.7168585,16.6433826 14.2753491,15.5477304 13.3555377,14.6718174 C12.4357264,13.7587739 11.3319528,13.320513 10.0074245,13.320513 C8.64610377,13.320513 7.50553774,13.7587739 6.54893396,14.6718174 C5.62912264,15.5477304 5.15082075,16.6433826 5.15082075,17.9222522 C5.15082075,19.1999043 5.62912264,20.2955565 6.54893396,21.2086 C7.50553774,22.0851217 8.64610377,22.5233826 10.0074245,22.5233826 C11.3319528,22.5233826 12.4357264,22.0851217 13.3555377,21.2086 Z M0.000490566038,27.1251217 L0.000490566038,3.29286087 L5.48195283,3.29286087 L5.48195283,11.1286 C6.03445283,9.52225217 8.20459434,8.39007826 11.0008208,8.39007826 C13.6130849,8.39007826 15.8206321,9.30251304 17.5498774,11.1657304 C19.3159151,12.9918174 20.1983208,15.2561652 20.1983208,17.9222522 C20.1983208,20.5877304 19.3159151,22.8520783 17.5498774,24.714687 C15.8206321,26.5407739 13.6130849,27.4538174 11.0008208,27.4538174 C8.20459434,27.4538174 6.03445283,26.3210348 5.48195283,24.714687 L5.48195283,27.1251217 L0.000490566038,27.1251217 Z" id="Fill-1" fill="#000000"></path>
                    <path d="M95.6229104,22.1947478 C97.3153632,24.0938783 99.4487123,25.0434435 102.024184,25.0434435 C104.415693,25.0434435 105.777014,23.9837043 105.777014,22.486313 C105.777014,21.5008348 105.519467,20.8434435 104.599656,20.1495304 C104.158146,19.8208348 103.753429,19.5286609 103.385505,19.3460522 L101.583288,18.396487 C99.7798443,17.5199652 99.007816,17.082313 97.9776274,16.2051826 C96.9468255,15.2921391 96.5427217,14.2695304 96.5427217,12.9188348 C96.5427217,11.494487 97.057816,10.3257913 98.0880047,9.4857913 C99.1175802,8.60926957 100.515693,8.1710087 102.281731,8.1710087 C104.047769,8.1710087 105.446495,8.57274783 106.512863,9.33970435 L106.512863,12.1147478 C105.298712,11.1657913 103.974184,10.6910087 102.539278,10.6910087 C100.368524,10.6910087 99.26475,11.4214435 99.26475,12.9188348 C99.26475,14.1234435 99.8902217,14.6347478 101.509703,15.5118783 L103.201542,16.3877913 C104.010976,16.7895304 104.562863,17.1182261 104.893995,17.3008348 C105.225127,17.4834435 105.703429,17.8121391 106.255316,18.2138783 C106.843995,18.6156174 107.248712,19.0173565 107.506259,19.3825739 C107.984561,20.0770957 108.499656,21.2086609 108.499656,22.486313 C108.499656,23.6550087 107.984561,24.7877913 106.91758,25.9199652 C105.887392,27.0156174 104.269137,27.5628348 102.024184,27.5628348 C99.3389481,27.5628348 97.2049858,26.8324 95.6229104,25.3356174 L95.6229104,22.1947478 Z" id="Fill-3" fill="#000000"></path>
                    <polygon id="Fill-5" fill="#000000" points="113.09816 27.125 113.09816 11.2386522 110.743443 11.2386522 110.743443 8.71926087 113.09816 8.71926087 113.09816 3.29334783 115.820189 3.29334783 115.820189 8.71926087 124.931226 8.71926087 124.931226 11.2386522 115.820189 11.2386522 115.820189 27.125"></polygon>
                    <path d="M122.235198,8.71907826 L124.95784,8.71907826 L124.95784,19.7480348 C124.95784,23.2169913 126.871047,25.0430783 129.998406,25.0430783 C133.125764,25.0430783 135.075151,23.1810783 135.075151,19.711513 L135.075151,8.71907826 L137.797792,8.71907826 L137.797792,19.7480348 C137.797792,24.7143826 134.596849,27.5630783 129.887415,27.5630783 C125.325764,27.5630783 122.235198,24.8239478 122.235198,20.003687 L122.235198,8.71907826 Z" id="Fill-7" fill="#000000"></path>
                    <path d="M155.274146,23.1077913 C156.598061,21.7199652 157.260325,20.0034435 157.260325,17.9217043 C157.260325,15.8405739 156.598061,14.1234435 155.274146,12.7727478 C153.985797,11.384313 152.330137,10.6910087 150.343958,10.6910087 C148.43075,10.6910087 146.848675,11.384313 145.560939,12.7727478 C144.309995,14.1234435 143.685137,15.8405739 143.685137,17.9217043 C143.685137,20.0034435 144.309995,21.7199652 145.560939,23.1077913 C146.848675,24.4590957 148.43075,25.1524 150.343958,25.1524 C152.330137,25.1524 153.985797,24.4590957 155.274146,23.1077913 M156.929193,11.4573565 L156.929193,3.29292174 L159.652448,3.29292174 L159.652448,27.1251826 L156.929193,27.1251826 L156.929193,24.3860522 C155.862212,26.2486609 153.692071,27.6730087 150.343958,27.6730087 C147.731693,27.6730087 145.487354,26.7599652 143.685137,24.8967478 C141.881693,23.0347478 140.961882,20.6973565 140.961882,17.9217043 C140.961882,15.1460522 141.881693,12.8457913 143.685137,10.9831826 C145.487354,9.12057391 147.731693,8.1710087 150.343958,8.1710087 C153.692071,8.1710087 155.862212,9.59535652 156.929193,11.4573565" id="Fill-9" fill="#000000"></path>
                    <path d="M163.883396,27.1250609 L166.606038,27.1250609 L166.606038,8.71932174 L163.883396,8.71932174 L163.883396,27.1250609 Z M163.956981,6.2748 C163.221745,5.54436522 163.221745,4.37566957 163.956981,3.68175652 C164.693443,2.95132174 165.796604,2.95132174 166.533066,3.68175652 C167.268915,4.37566957 167.268915,5.54436522 166.533066,6.2748 C165.796604,6.96871304 164.693443,6.96871304 163.956981,6.2748 Z" id="Fill-12" fill="#000000"></path>
                    <path d="M172.750561,17.9220087 C172.750561,20.0037478 173.412825,21.7196609 174.774146,23.1080957 C176.135467,24.4587913 177.827307,25.1527043 179.888297,25.1527043 C181.948061,25.1527043 183.640514,24.4587913 185.001835,23.1080957 C186.363156,21.7196609 187.024807,20.0037478 187.024807,17.9220087 C187.024807,15.8402696 186.363156,14.1237478 185.001835,12.7724435 C183.640514,11.3846174 181.948061,10.6907043 179.888297,10.6907043 C177.827307,10.6907043 176.135467,11.3846174 174.774146,12.7724435 C173.412825,14.1237478 172.750561,15.8402696 172.750561,17.9220087 M170.02792,17.9220087 C170.02792,15.1457478 170.984524,12.845487 172.897118,10.983487 C174.810325,9.12026957 177.128863,8.17070435 179.888297,8.17070435 C182.647118,8.17070435 184.965042,9.12026957 186.87825,10.983487 C188.790844,12.845487 189.748061,15.1457478 189.748061,17.9220087 C189.748061,20.6976609 188.790844,23.0344435 186.87825,24.8970522 C184.965042,26.7602696 182.647118,27.673313 179.888297,27.673313 C177.128863,27.673313 174.810325,26.7602696 172.897118,24.8970522 C170.984524,23.0344435 170.02792,20.6976609 170.02792,17.9220087" id="Fill-14" fill="#000000"></path>
                    <path d="M191.489325,24.276487 C192.225175,23.5460522 193.328948,23.5460522 194.064184,24.276487 C194.800033,24.9704 194.800033,26.1390957 194.064184,26.8695304 C193.328948,27.5628348 192.225175,27.5628348 191.489325,26.8695304 C190.753476,26.1390957 190.753476,24.9704 191.489325,24.276487" id="Fill-15" fill="#000000"></path>
                    <polygon id="Fill-16" fill="#000000" points="73.0690142 27.125 67.2190142 8.71926087 72.2963726 8.71926087 75.7683538 19.5893478 80.8260896 8.71926087 86.0052406 19.5893478 89.4778349 8.71926087 94.5545802 8.71926087 88.6677877 27.125 84.1435425 27.125 80.8690142 19.3117826 77.6306651 27.125"></polygon>
                    <path d="M57.4136415,13.6230957 C55.0564717,13.6230957 53.1383585,15.5270957 53.1383585,17.8669217 C53.1383585,20.2067478 55.0564717,22.1107478 57.4136415,22.1107478 C59.7714245,22.1107478 61.6895377,20.2067478 61.6895377,17.8669217 C61.6895377,15.5270957 59.7714245,13.6230957 57.4136415,13.6230957 M57.4136415,27.5585739 C52.0302925,27.5585739 47.6507642,23.2106609 47.6507642,17.8669217 C47.6507642,12.5225739 52.0302925,8.17587826 57.4136415,8.17587826 C62.7969906,8.17587826 67.1771321,12.5225739 67.1771321,17.8669217 C67.1771321,23.2106609 62.7969906,27.5585739 57.4136415,27.5585739" id="Fill-17" fill="#000000"></path>
                    <polygon id="Fill-18" fill="#000000" points="26.1119104 27.125 20.2619104 8.71926087 25.3392689 8.71926087 28.8118632 19.5893478 33.8695991 8.71926087 39.04875 19.5893478 42.5207311 8.71926087 47.5974764 8.71926087 41.710684 27.125 37.1864387 27.125 33.9119104 19.3117826 30.6735613 27.125"></polygon>
                    <path d="M63.1475,6.83711304 C61.3550943,5.91493913 59.4259434,5.44746087 57.4133962,5.44746087 C55.4014623,5.44746087 53.4723113,5.91493913 51.6799057,6.83711304 L49.1553302,1.9998087 C51.7357075,0.672852174 54.5141509,0.000243478261 57.4133962,0.000243478261 C60.3132547,0.000243478261 63.0916981,0.672852174 65.6720755,1.9998087 L63.1475,6.83711304 Z" id="Fill-19" fill="#FC2150"></path>
                </g>
            </g>
        </g>
    </g>
</svg>