<?xml version="1.0" encoding="UTF-8"?>
<svg width="176px" height="26px" viewBox="0 0 176 26" version="1.1" xmlns="http://www.w3.org/2000/svg" xmlns:xlink="http://www.w3.org/1999/xlink">
    <!-- Generator: Sketch 51.2 (57519) - http://www.bohemiancoding.com/sketch -->
    <title>logo-01</title>
    <desc>Created with Sketch.</desc>
    <defs></defs>
    <g id="03-Home_responsive" stroke="none" stroke-width="1" fill="none" fill-rule="evenodd">
        <g id="Home-0301" transform="translate(-56.000000, -45.000000)">
            <g id="logo-01" transform="translate(56.000000, 45.000000)">
                <path d="M12.0542289,19.6937 C12.8844176,18.8458739 13.2829082,17.8284826 13.2829082,16.6420913 C13.2829082,15.4545696 12.8844176,14.4371783 12.0542289,13.6238304 C11.2240403,12.7760043 10.2278138,12.3690478 9.03234214,12.3690478 C7.80366289,12.3690478 6.77422893,12.7760043 5.9108327,13.6238304 C5.08064403,14.4371783 4.64894591,15.4545696 4.64894591,16.6420913 C4.64894591,17.8284826 5.08064403,18.8458739 5.9108327,19.6937 C6.77422893,20.507613 7.80366289,20.9145696 9.03234214,20.9145696 C10.2278138,20.9145696 11.2240403,20.507613 12.0542289,19.6937 Z M0.000442767296,25.187613 L0.000442767296,3.05765652 L4.94781384,3.05765652 L4.94781384,10.3337 C5.4464805,8.8420913 7.40517233,7.79078696 9.92894591,7.79078696 C12.2866818,7.79078696 14.2791346,8.63804783 15.8398893,10.3681783 C17.4338516,12.0638304 18.2302792,14.1664391 18.2302792,16.6420913 C18.2302792,19.1171783 17.4338516,21.219787 15.8398893,22.9493522 C14.2791346,24.6450043 12.2866818,25.4928304 9.92894591,25.4928304 C7.40517233,25.4928304 5.4464805,24.4409609 4.94781384,22.9493522 L4.94781384,25.187613 L0.000442767296,25.187613 Z" id="Fill-1" fill="#000000"></path>
                <path d="M86.3058063,20.6094087 C87.8333535,22.372887 89.7588377,23.2546261 92.083366,23.2546261 C94.2418566,23.2546261 95.4705358,22.2705826 95.4705358,20.8801478 C95.4705358,19.9650609 95.238083,19.3546261 94.4078943,18.7102783 C94.0094038,18.4050609 93.6441208,18.1337565 93.3120453,17.9641913 L91.6854289,17.0824522 C90.0577057,16.2685391 89.3609006,15.8621478 88.4310893,15.0476696 C87.5007245,14.1998435 87.135995,13.2502783 87.135995,11.9960609 C87.135995,10.6734522 87.6009006,9.58823478 88.5307119,8.80823478 C89.4599698,7.99432174 90.7218566,7.58736522 92.3158189,7.58736522 C93.9097811,7.58736522 95.1722214,7.9604087 96.1346868,8.67258261 L96.1346868,11.2494087 C95.0388377,10.3682348 93.843366,9.92736522 92.5482717,9.92736522 C90.5890264,9.92736522 89.5928,10.6056261 89.5928,11.9960609 C89.5928,13.1146261 90.1573283,13.5894087 91.6190138,14.403887 L93.1460075,15.2172348 C93.8765736,15.5902783 94.3746868,15.8954957 94.6735547,16.0650609 C94.9724226,16.2346261 95.4041208,16.5398435 95.902234,16.912887 C96.4335547,17.2859304 96.7988377,17.6589739 97.0312906,17.9981043 C97.4629887,18.6430174 97.9278943,19.6937565 97.9278943,20.8801478 C97.9278943,21.9653652 97.4629887,23.0172348 96.4999698,24.0685391 C95.5701585,25.0859304 94.1095799,25.5940609 92.083366,25.5940609 C89.6597686,25.5940609 87.7337308,24.9158 86.3058063,23.5259304 L86.3058063,20.6094087 Z" id="Fill-3" fill="#000000"></path>
                <polygon id="Fill-5" fill="#000000" points="102.07834 25.1875 102.07834 10.4358913 99.9530566 10.4358913 99.9530566 8.09645652 102.07834 8.09645652 102.07834 3.0581087 104.535145 3.0581087 104.535145 8.09645652 112.75844 8.09645652 112.75844 10.4358913 104.535145 10.4358913 104.535145 25.1875"></polygon>
                <path d="M110.325102,8.09628696 L112.78246,8.09628696 L112.78246,18.3374609 C112.78246,21.5586348 114.509253,23.254287 117.331894,23.254287 C120.154536,23.254287 121.913982,21.525287 121.913982,18.3035478 L121.913982,8.09628696 L124.371341,8.09628696 L124.371341,18.3374609 C124.371341,22.9490696 121.482284,25.594287 117.231718,25.594287 C113.114536,25.594287 110.325102,23.0508087 110.325102,18.5748522 L110.325102,8.09628696 Z" id="Fill-7" fill="#000000"></path>
                <path d="M140.14487,21.4572348 C141.339789,20.1685391 141.937525,18.5746261 141.937525,16.6415826 C141.937525,14.7091043 141.339789,13.1146261 140.14487,11.8604087 C138.982053,10.5711478 137.487713,9.92736522 135.695059,9.92736522 C133.968267,9.92736522 132.540342,10.5711478 131.378078,11.8604087 C130.249021,13.1146261 129.685047,14.7091043 129.685047,16.6415826 C129.685047,18.5746261 130.249021,20.1685391 131.378078,21.4572348 C132.540342,22.7120174 133.968267,23.3558 135.695059,23.3558 C137.487713,23.3558 138.982053,22.7120174 140.14487,21.4572348 M141.638657,10.6389739 L141.638657,3.05771304 L144.096569,3.05771304 L144.096569,25.1876696 L141.638657,25.1876696 L141.638657,22.6441913 C140.675638,24.3737565 138.716946,25.6963652 135.695059,25.6963652 C133.337323,25.6963652 131.311663,24.8485391 129.685047,23.1184087 C128.057323,21.3894087 127.227135,19.2189739 127.227135,16.6415826 C127.227135,14.0641913 128.057323,11.9282348 129.685047,10.1986696 C131.311663,8.46910435 133.337323,7.58736522 135.695059,7.58736522 C138.716946,7.58736522 140.675638,8.90997391 141.638657,10.6389739" id="Fill-9" fill="#000000"></path>
                <path d="M147.91527,25.1875565 L150.372629,25.1875565 L150.372629,8.09651304 L147.91527,8.09651304 L147.91527,25.1875565 Z M147.981686,5.8266 C147.318088,5.14833913 147.318088,4.06312174 147.981686,3.41877391 C148.64639,2.74051304 149.642063,2.74051304 150.306767,3.41877391 C150.970918,4.06312174 150.970918,5.14833913 150.306767,5.8266 C149.642063,6.47094783 148.64639,6.47094783 147.981686,5.8266 Z" id="Fill-12" fill="#000000"></path>
                <path d="M155.918455,16.6418652 C155.918455,18.5749087 156.516191,20.1682565 157.74487,21.4575174 C158.97355,22.7117348 160.500543,23.3560826 162.360719,23.3560826 C164.219789,23.3560826 165.747336,22.7117348 166.976015,21.4575174 C168.204694,20.1682565 168.801877,18.5749087 168.801877,16.6418652 C168.801877,14.7088217 168.204694,13.1149087 166.976015,11.8601261 C165.747336,10.5714304 164.219789,9.92708261 162.360719,9.92708261 C160.500543,9.92708261 158.97355,10.5714304 157.74487,11.8601261 C156.516191,13.1149087 155.918455,14.7088217 155.918455,16.6418652 M153.461097,16.6418652 C153.461097,14.0639087 154.324493,11.9279522 156.050732,10.1989522 C157.777525,8.46882174 159.870153,7.58708261 162.360719,7.58708261 C164.850732,7.58708261 166.942808,8.46882174 168.6696,10.1989522 C170.395839,11.9279522 171.259789,14.0639087 171.259789,16.6418652 C171.259789,19.2192565 170.395839,21.3891261 168.6696,23.1186913 C166.942808,24.8488217 164.850732,25.6966478 162.360719,25.6966478 C159.870153,25.6966478 157.777525,24.8488217 156.050732,23.1186913 C154.324493,21.3891261 153.461097,19.2192565 153.461097,16.6418652" id="Fill-14" fill="#000000"></path>
                <path d="M172.831391,22.5424522 C173.495542,21.8641913 174.491769,21.8641913 175.155366,22.5424522 C175.819517,23.1868 175.819517,24.2720174 175.155366,24.9502783 C174.491769,25.5940609 173.495542,25.5940609 172.831391,24.9502783 C172.16724,24.2720174 172.16724,23.1868 172.831391,22.5424522" id="Fill-15" fill="#000000"></path>
                <polygon id="Fill-16" fill="#000000" points="65.9494692 25.1875 60.6694692 8.09645652 65.2521107 8.09645652 68.3857962 18.1901087 72.950727 8.09645652 77.6252428 18.1901087 80.7594818 8.09645652 85.3415698 8.09645652 80.0283623 25.1875 75.9449409 25.1875 72.9894692 17.9323696 70.0666516 25.1875"></polygon>
                <path d="M51.8194918,12.6500174 C49.691995,12.6500174 47.9607748,14.4180174 47.9607748,16.590713 C47.9607748,18.7634087 49.691995,20.5314087 51.8194918,20.5314087 C53.9475421,20.5314087 55.6787623,18.7634087 55.6787623,16.590713 C55.6787623,14.4180174 53.9475421,12.6500174 51.8194918,12.6500174 M51.8194918,25.5901043 C46.9606742,25.5901043 43.0078692,21.5527565 43.0078692,16.590713 C43.0078692,11.6281043 46.9606742,7.59188696 51.8194918,7.59188696 C56.6783094,7.59188696 60.6316679,11.6281043 60.6316679,16.590713 C60.6316679,21.5527565 56.6783094,25.5901043 51.8194918,25.5901043" id="Fill-17" fill="#000000"></path>
                <polygon id="Fill-18" fill="#000000" points="23.567673 25.1875 18.287673 8.09645652 22.8703145 8.09645652 26.0045535 18.1901087 30.5694843 8.09645652 35.244 18.1901087 38.3776855 8.09645652 42.9597736 8.09645652 37.646566 25.1875 33.5631447 25.1875 30.607673 17.9323696 27.6848553 25.1875"></polygon>
                <path d="M56.9946667,6.34874783 C55.3769057,5.49244348 53.6357233,5.05835652 51.8192704,5.05835652 C50.0033711,5.05835652 48.2621887,5.49244348 46.6444277,6.34874783 L44.3658365,1.85696522 C46.6947925,0.624791304 49.2025157,0.000226086957 51.8192704,0.000226086957 C54.4365786,0.000226086957 56.9443019,0.624791304 59.2732579,1.85696522 L56.9946667,6.34874783 Z" id="Fill-19" fill="#FC2150"></path>
            </g>
        </g>
    </g>
</svg>