<?xml version="1.0" encoding="UTF-8"?>
<svg width="194px" height="28px" viewBox="0 0 194 28" version="1.1" xmlns="http://www.w3.org/2000/svg" xmlns:xlink="http://www.w3.org/1999/xlink">
    <!-- Generator: Sketch 51.2 (57519) - http://www.bohemiancoding.com/sketch -->
    <title>Logo</title>
    <desc>Created with Sketch.</desc>
    <defs></defs>
    <g id="00-UI-Kit" stroke="none" stroke-width="1" fill="none" fill-rule="evenodd">
        <g id="header/dark" transform="translate(-57.000000, -60.000000)" fill="#FFFFFF">
            <g id="Logo" transform="translate(57.000000, 60.000000)">
                <path d="M13.2870478,21.2086 C14.2021421,20.2955565 14.6413874,19.1999043 14.6413874,17.9222522 C14.6413874,16.6433826 14.2021421,15.5477304 13.2870478,14.6718174 C12.3719535,13.7587739 11.2738403,13.320513 9.9561044,13.320513 C8.60176478,13.320513 7.4670478,13.7587739 6.51534969,14.6718174 C5.60025535,15.5477304 5.12440629,16.6433826 5.12440629,17.9222522 C5.12440629,19.1999043 5.60025535,20.2955565 6.51534969,21.2086 C7.4670478,22.0851217 8.60176478,22.5233826 9.9561044,22.5233826 C11.2738403,22.5233826 12.3719535,22.0851217 13.2870478,21.2086 Z M0.000488050314,27.1251217 L0.000488050314,3.29286087 L5.45384025,3.29286087 L5.45384025,11.1286 C6.00350692,9.52225217 8.1625195,8.39007826 10.9444063,8.39007826 C13.5432742,8.39007826 15.7395006,9.30251304 17.459878,11.1657304 C19.2168591,12.9918174 20.0947396,15.2561652 20.0947396,17.9222522 C20.0947396,20.5877304 19.2168591,22.8520783 17.459878,24.714687 C15.7395006,26.5407739 13.5432742,27.4538174 10.9444063,27.4538174 C8.1625195,27.4538174 6.00350692,26.3210348 5.45384025,24.714687 L5.45384025,27.1251217 L0.000488050314,27.1251217 Z" id="Fill-1"></path>
                <path d="M95.1325365,22.1947478 C96.8163101,24.0938783 98.9387189,25.0434435 101.500983,25.0434435 C103.880228,25.0434435 105.234568,23.9837043 105.234568,22.486313 C105.234568,21.5008348 104.978342,20.8434435 104.063247,20.1495304 C103.624002,19.8208348 103.22136,19.5286609 102.855323,19.3460522 L101.062348,18.396487 C99.2681528,17.5199652 98.5000836,17.082313 97.475178,16.2051826 C96.4496623,15.2921391 96.0476308,14.2695304 96.0476308,12.9188348 C96.0476308,11.494487 96.5600836,10.3257913 97.5849893,9.4857913 C98.6092849,8.60926957 100.000228,8.1710087 101.757209,8.1710087 C103.514191,8.1710087 104.905744,8.57274783 105.966643,9.33970435 L105.966643,12.1147478 C104.758719,11.1657913 103.440983,10.6910087 102.013436,10.6910087 C99.8538132,10.6910087 98.7557,11.4214435 98.7557,12.9188348 C98.7557,14.1234435 99.3779642,14.6347478 100.98914,15.5118783 L102.672304,16.3877913 C103.477587,16.7895304 104.026643,17.1182261 104.356077,17.3008348 C104.685511,17.4834435 105.16136,17.8121391 105.710417,18.2138783 C106.296077,18.6156174 106.698719,19.0173565 106.954945,19.3825739 C107.430794,20.0770957 107.943247,21.2086609 107.943247,22.486313 C107.943247,23.6550087 107.430794,24.7877913 106.369285,25.9199652 C105.344379,27.0156174 103.734423,27.5628348 101.500983,27.5628348 C98.8295176,27.5628348 96.7064987,26.8324 95.1325365,25.3356174 L95.1325365,22.1947478 Z" id="Fill-3"></path>
                <polygon id="Fill-5" points="112.51817 27.125 112.51817 11.2386522 110.175528 11.2386522 110.175528 8.71926087 112.51817 8.71926087 112.51817 3.29334783 115.226239 3.29334783 115.226239 8.71926087 124.290553 8.71926087 124.290553 11.2386522 115.226239 11.2386522 115.226239 27.125"></polygon>
                <path d="M121.608351,8.71907826 L124.31703,8.71907826 L124.31703,19.7480348 C124.31703,23.2169913 126.220426,25.0430783 129.331747,25.0430783 C132.443068,25.0430783 134.382458,23.1810783 134.382458,19.711513 L134.382458,8.71907826 L137.091137,8.71907826 L137.091137,19.7480348 C137.091137,24.7143826 133.906609,27.5630783 129.221326,27.5630783 C124.683068,27.5630783 121.608351,24.8239478 121.608351,20.003687 L121.608351,8.71907826 Z" id="Fill-7"></path>
                <path d="M154.477869,23.1077913 C155.794994,21.7199652 156.453862,20.0034435 156.453862,17.9217043 C156.453862,15.8405739 155.794994,14.1234435 154.477869,12.7727478 C153.196126,11.384313 151.548957,10.6910087 149.572963,10.6910087 C147.669567,10.6910087 146.095604,11.384313 144.814472,12.7727478 C143.569944,14.1234435 142.94829,15.8405739 142.94829,17.9217043 C142.94829,20.0034435 143.569944,21.7199652 144.814472,23.1077913 C146.095604,24.4590957 147.669567,25.1524 149.572963,25.1524 C151.548957,25.1524 153.196126,24.4590957 154.477869,23.1077913 M156.124428,11.4573565 L156.124428,3.29292174 L158.833718,3.29292174 L158.833718,27.1251826 L156.124428,27.1251826 L156.124428,24.3860522 C155.062919,26.2486609 152.903906,27.6730087 149.572963,27.6730087 C146.974095,27.6730087 144.741265,26.7599652 142.94829,24.8967478 C141.154095,23.0347478 140.239001,20.6973565 140.239001,17.9217043 C140.239001,15.1460522 141.154095,12.8457913 142.94829,10.9831826 C144.741265,9.12057391 146.974095,8.1710087 149.572963,8.1710087 C152.903906,8.1710087 155.062919,9.59535652 156.124428,11.4573565" id="Fill-9"></path>
                <path d="M163.042969,27.1250609 L165.751648,27.1250609 L165.751648,8.71932174 L163.042969,8.71932174 L163.042969,27.1250609 Z M163.116176,6.2748 C162.384711,5.54436522 162.384711,4.37566957 163.116176,3.68175652 C163.848862,2.95132174 164.946365,2.95132174 165.67905,3.68175652 C166.411126,4.37566957 166.411126,5.54436522 165.67905,6.2748 C164.946365,6.96871304 163.848862,6.96871304 163.116176,6.2748 Z" id="Fill-12"></path>
                <path d="M171.864661,17.9220087 C171.864661,20.0037478 172.523529,21.7196609 173.877869,23.1080957 C175.232208,24.4587913 176.915372,25.1527043 178.965793,25.1527043 C181.014994,25.1527043 182.698768,24.4587913 184.053108,23.1080957 C185.407447,21.7196609 186.065705,20.0037478 186.065705,17.9220087 C186.065705,15.8402696 185.407447,14.1237478 184.053108,12.7724435 C182.698768,11.3846174 181.014994,10.6907043 178.965793,10.6907043 C176.915372,10.6907043 175.232208,11.3846174 173.877869,12.7724435 C172.523529,14.1237478 171.864661,15.8402696 171.864661,17.9220087 M169.155982,17.9220087 C169.155982,15.1457478 170.10768,12.845487 172.010466,10.983487 C173.913862,9.12026957 176.22051,8.17070435 178.965793,8.17070435 C181.710466,8.17070435 184.016504,9.12026957 185.9199,10.983487 C187.822686,12.845487 188.774994,15.1457478 188.774994,17.9220087 C188.774994,20.6976609 187.822686,23.0344435 185.9199,24.8970522 C184.016504,26.7602696 181.710466,27.673313 178.965793,27.673313 C176.22051,27.673313 173.913862,26.7602696 172.010466,24.8970522 C170.10768,23.0344435 169.155982,20.6976609 169.155982,17.9220087" id="Fill-14"></path>
                <path d="M190.507329,24.276487 C191.239404,23.5460522 192.337518,23.5460522 193.068983,24.276487 C193.801058,24.9704 193.801058,26.1390957 193.068983,26.8695304 C192.337518,27.5628348 191.239404,27.5628348 190.507329,26.8695304 C189.775253,26.1390957 189.775253,24.9704 190.507329,24.276487" id="Fill-15"></path>
                <polygon id="Fill-16" points="72.6943013 27.125 66.8743013 8.71926087 71.925622 8.71926087 75.3797981 19.5893478 80.4115969 8.71926087 85.5641881 19.5893478 89.0189742 8.71926087 94.0696849 8.71926087 88.2130811 27.125 83.7120371 27.125 80.4543013 19.3117826 77.2325591 27.125"></polygon>
                <path d="M57.1192126,13.6230957 C54.7741308,13.6230957 52.8658541,15.5270957 52.8658541,17.8669217 C52.8658541,20.2067478 54.7741308,22.1107478 57.1192126,22.1107478 C59.4649044,22.1107478 61.3731811,20.2067478 61.3731811,17.8669217 C61.3731811,15.5270957 59.4649044,13.6230957 57.1192126,13.6230957 M57.1192126,27.5585739 C51.7634704,27.5585739 47.4064013,23.2106609 47.4064013,17.8669217 C47.4064013,12.5225739 51.7634704,8.17587826 57.1192126,8.17587826 C62.4749547,8.17587826 66.832634,12.5225739 66.832634,17.8669217 C66.832634,23.2106609 62.4749547,27.5585739 57.1192126,27.5585739" id="Fill-17"></path>
                <polygon id="Fill-18" points="25.9780031 27.125 20.1580031 8.71926087 25.2093239 8.71926087 28.6641101 19.5893478 33.6959088 8.71926087 38.8485 19.5893478 42.3026761 8.71926087 47.3533868 8.71926087 41.496783 27.125 36.995739 27.125 33.7380031 19.3117826 30.516261 27.125"></polygon>
                <path d="M62.8236667,6.83711304 C61.0404528,5.91493913 59.121195,5.44746087 57.1189686,5.44746087 C55.1173522,5.44746087 53.1980943,5.91493913 51.4148805,6.83711304 L48.9032516,1.9998087 C51.4703962,0.672852174 54.2345912,0.000243478261 57.1189686,0.000243478261 C60.003956,0.000243478261 62.7681509,0.672852174 65.3352956,1.9998087 L62.8236667,6.83711304 Z" id="Fill-19"></path>
            </g>
        </g>
    </g>
</svg>