<?xml version="1.0" encoding="UTF-8"?>
<svg width="147px" height="58px" viewBox="0 0 147 58" version="1.1" xmlns="http://www.w3.org/2000/svg" xmlns:xlink="http://www.w3.org/1999/xlink">
    <!-- Generator: Sketch 51.2 (57519) - http://www.bohemiancoding.com/sketch -->
    <title>Group</title>
    <desc>Created with Sketch.</desc>
    <defs></defs>
    <g id="01-Cover" stroke="none" stroke-width="1" fill="none" fill-rule="evenodd">
        <g id="Cover-0101-mouse-over" transform="translate(-573.000000, -742.000000)">
            <g id="Group" transform="translate(572.000000, 742.000000)">
                <circle id="Oval" fill="#FFFFFF" fill-rule="nonzero" cx="74.5" cy="74.5" r="74.5"></circle>
                <path d="M75.71875,24.0563039 L75.71875,37.5094289 L80.59375,32.4469289 C80.796876,32.2281778 81.0390611,32.1188039 81.3203125,32.1188039 C81.6015639,32.1188039 81.8476552,32.2164592 82.0585938,32.4117727 C82.2695323,32.6070861 82.375,32.845365 82.375,33.1266164 C82.375,33.4078678 82.2812509,33.6578653 82.09375,33.8766164 L75.4375,40.7672414 C75.234374,40.9859925 74.9882827,41.0953664 74.6992188,41.0953664 C74.4101548,41.0953664 74.1640635,40.9859925 73.9609375,40.7672414 L67.28125,33.8297414 C67.0937491,33.6266154 67,33.3922427 67,33.1266164 C67,32.8297399 67.1093739,32.5797424 67.328125,32.3766164 C67.531251,32.1734904 67.7734361,32.0758351 68.0546875,32.0836477 C68.3359389,32.0914602 68.578124,32.1969279 68.78125,32.4000539 L73.65625,37.4625539 L73.65625,24.0328664 C73.65625,23.7672401 73.7499991,23.5328674 73.9375,23.3297414 C74.1250009,23.1266154 74.3515612,23.0172415 74.6171875,23.0016164 C74.914064,22.9859913 75.1718739,23.0836466 75.390625,23.2945852 C75.6093761,23.5055237 75.71875,23.7594274 75.71875,24.0563039 Z" id="arrow-down---anticon" fill="#0F0506"></path>
            </g>
        </g>
    </g>
</svg>