<?xml version="1.0" encoding="UTF-8"?>
<svg width="22px" height="23px" viewBox="0 0 22 23" version="1.1" xmlns="http://www.w3.org/2000/svg" xmlns:xlink="http://www.w3.org/1999/xlink">
    <!-- Generator: Sketch 52.2 (67145) - http://www.bohemiancoding.com/sketch -->
    <title>call-ico</title>
    <desc>Created with Sketch.</desc>
    <g id="06-¿Hablamos?" stroke="none" stroke-width="1" fill="none" fill-rule="evenodd">
        <g id="iPhone-8" transform="translate(-16.000000, -374.000000)" stroke="#020303" stroke-width="2">
            <g id="call-ico" transform="translate(16.000000, 375.000000)">
                <path d="M20.41056,15.53168 L20.41056,18.46448 C20.41056,19.01168 20.18016,19.53968 19.77696,19.91408 C19.36896,20.28368 18.82656,20.46608 18.27936,20.41808 C15.27456,20.09168 12.38496,19.06448 9.84576,17.41808 C7.48896,15.92048 5.48736,13.91888 3.98496,11.55728 C2.33376,9.00368 1.30656,6.10448 0.98496,3.08528 C0.93696,2.53808 1.11936,1.99568 1.48896,1.58768 C1.85856,1.18928 2.38176,0.95408 2.92896,0.95408 L5.86176,0.95408 C6.84096,0.94448 7.67616,1.66448 7.81536,2.63408 C7.94016,3.57488 8.17056,4.49168 8.50176,5.38448 C8.76576,6.09488 8.59776,6.90128 8.06016,7.43888 L6.81696,8.68208 C8.20896,11.13008 10.23456,13.15568 12.68256,14.54768 L13.92096,13.30448 C14.46336,12.77168 15.26976,12.59408 15.98496,12.86288 C16.86816,13.19408 17.78976,13.42448 18.72576,13.54928 C19.71456,13.68848 20.43456,14.54288 20.41056,15.53168 Z" id="Stroke-5" stroke-linecap="round" stroke-linejoin="round"></path>
                <path d="M17.6186314,8.22558312 C16.5330992,5.85380074 15.1946677,4.45611466 13.6033367,4.0325249" id="Path-2" fill-rule="nonzero"></path>
                <path d="M14.0157162,0.281873756 C17.8619983,1.37728169 20.1900929,3.78776635 21,7.51332774" id="Path-3" fill-rule="nonzero"></path>
            </g>
        </g>
    </g>
</svg>