<?xml version="1.0" encoding="UTF-8"?>
<svg width="218px" height="31px" viewBox="0 0 218 31" version="1.1" xmlns="http://www.w3.org/2000/svg" xmlns:xlink="http://www.w3.org/1999/xlink">
    <!-- Generator: Sketch 51.2 (57519) - http://www.bohemiancoding.com/sketch -->
    <title>logo-01</title>
    <desc>Created with Sketch.</desc>
    <defs></defs>
    <g id="01-Home_web" stroke="none" stroke-width="1" fill="none" fill-rule="evenodd">
        <g id="Home-0001" transform="translate(-612.000000, -808.000000)">
            <g id="logo-01" transform="translate(612.000000, 808.000000)">
                <path d="M14.9308063,23.48095 C15.9591082,22.4700804 16.4526931,21.257037 16.4526931,19.8424935 C16.4526931,18.4266022 15.9591082,17.2135587 14.9308063,16.2437978 C13.9025044,15.2329283 12.6685421,14.7477109 11.1877874,14.7477109 C9.66590063,14.7477109 8.39080629,15.2329283 7.32137233,16.2437978 C6.29307044,17.2135587 5.75835346,18.4266022 5.75835346,19.8424935 C5.75835346,21.257037 6.29307044,22.4700804 7.32137233,23.48095 C8.39080629,24.4513848 9.66590063,24.9366022 11.1877874,24.9366022 C12.6685421,24.9366022 13.9025044,24.4513848 14.9308063,23.48095 Z M0.000548427673,30.0313848 L0.000548427673,3.64566739 L6.12854214,3.64566739 L6.12854214,12.32095 C6.74620881,10.5424935 9.17231572,9.28901522 12.2983535,9.28901522 C15.2187308,9.28901522 17.6866553,10.2992109 19.6198629,12.3620587 C21.5942025,14.3837978 22.5806868,16.8907543 22.5806868,19.8424935 C22.5806868,22.7935587 21.5942025,25.3005152 19.6198629,27.3626891 C17.6866553,29.3844283 15.2187308,30.3952978 12.2983535,30.3952978 C9.17231572,30.3952978 6.74620881,29.1411457 6.12854214,27.3626891 L6.12854214,30.0313848 L0.000548427673,30.0313848 Z" id="Fill-1" fill="#FFFFFF"></path>
                <path d="M106.90151,24.5727565 C108.793586,26.6753652 111.17856,27.7266696 114.057806,27.7266696 C116.731391,27.7266696 118.253277,26.553387 118.253277,24.8955609 C118.253277,23.8044957 117.965353,23.0766696 116.937051,22.3084087 C116.443466,21.9444957 115.991013,21.6210174 115.579692,21.4188435 L113.564906,20.3675391 C111.548749,19.3971043 110.685661,18.9125609 109.533963,17.9414522 C108.381579,16.9305826 107.929812,15.7984087 107.929812,14.3029957 C107.929812,12.7260391 108.505661,11.4321261 109.657359,10.5021261 C110.808372,9.5316913 112.371391,9.04647391 114.34573,9.04647391 C116.32007,9.04647391 117.883774,9.49125652 119.075919,10.340387 L119.075919,13.4127565 C117.71856,12.3621261 116.237806,11.8364739 114.633655,11.8364739 C112.206862,11.8364739 110.9729,12.6451696 110.9729,14.3029957 C110.9729,15.6366696 111.672145,16.2027565 113.482642,17.1738652 L115.374032,18.1436261 C116.278938,18.5884087 116.895919,18.9523217 117.266108,19.1544957 C117.636296,19.3566696 118.171013,19.7205826 118.787994,20.1653652 C119.446108,20.6101478 119.89856,21.0549304 120.186485,21.4592783 C120.721202,22.228213 121.297051,23.4810174 121.297051,24.8955609 C121.297051,26.1894739 120.721202,27.4436261 119.528372,28.6971043 C118.376674,29.9101478 116.567548,30.5159957 114.057806,30.5159957 C111.05585,30.5159957 108.670189,29.7073 106.90151,28.0501478 L106.90151,24.5727565 Z" id="Fill-3" fill="#FFFFFF"></path>
                <polygon id="Fill-5" fill="#FFFFFF" points="126.437943 30.03125 126.437943 12.4427935 123.805491 12.4427935 123.805491 9.65346739 126.437943 9.65346739 126.437943 3.64620652 129.481031 3.64620652 129.481031 9.65346739 139.666704 9.65346739 139.666704 12.4427935 129.481031 12.4427935 129.481031 30.03125"></polygon>
                <path d="M136.652683,9.65326522 L139.696457,9.65326522 L139.696457,21.8638957 C139.696457,25.7045261 141.835325,27.7262652 145.331551,27.7262652 C148.827777,27.7262652 151.007092,25.6647652 151.007092,21.8234609 L151.007092,9.65326522 L154.050865,9.65326522 L154.050865,21.8638957 C154.050865,27.3623522 150.472375,30.5162652 145.207469,30.5162652 C140.107777,30.5162652 136.652683,27.4836565 136.652683,22.1469391 L136.652683,9.65326522 Z" id="Fill-7" fill="#FFFFFF"></path>
                <path d="M173.588533,25.5836261 C175.068602,24.0471043 175.808979,22.1466696 175.808979,19.841887 C175.808979,17.5377783 175.068602,15.6366696 173.588533,14.1412565 C172.148225,12.6040609 170.297281,11.8364739 168.076835,11.8364739 C165.937967,11.8364739 164.169287,12.6040609 162.729665,14.1412565 C161.331174,15.6366696 160.632614,17.5377783 160.632614,19.841887 C160.632614,22.1466696 161.331174,24.0471043 162.729665,25.5836261 C164.169287,27.079713 165.937967,27.8473 168.076835,27.8473 C170.297281,27.8473 172.148225,27.079713 173.588533,25.5836261 M175.438791,12.6849304 L175.438791,3.64573478 L178.48325,3.64573478 L178.48325,30.0314522 L175.438791,30.0314522 L175.438791,26.9988435 C174.24596,29.0610174 171.819853,30.6379739 168.076835,30.6379739 C165.156457,30.6379739 162.647401,29.6271043 160.632614,27.5642565 C158.616457,25.5027565 157.588155,22.9149304 157.588155,19.841887 C157.588155,16.7688435 158.616457,14.2221261 160.632614,12.1599522 C162.647401,10.0977783 165.156457,9.04647391 168.076835,9.04647391 C171.819853,9.04647391 174.24596,10.6234304 175.438791,12.6849304" id="Fill-9" fill="#FFFFFF"></path>
                <path d="M183.213233,30.0313174 L186.257006,30.0313174 L186.257006,9.65353478 L183.213233,9.65353478 L183.213233,30.0313174 Z M183.295497,6.9471 C182.473541,6.13840435 182.473541,4.8444913 183.295497,4.07623043 C184.118824,3.26753478 185.352101,3.26753478 186.175428,4.07623043 C186.998069,4.8444913 186.998069,6.13840435 186.175428,6.9471 C185.352101,7.71536087 184.118824,7.71536087 183.295497,6.9471 Z" id="Fill-12" fill="#FFFFFF"></path>
                <path d="M193.126269,19.8422239 C193.126269,22.1470065 193.866646,24.0467674 195.388533,25.583963 C196.910419,27.0793761 198.801809,27.847637 201.105891,27.847637 C203.408602,27.847637 205.300677,27.0793761 206.822564,25.583963 C208.344451,24.0467674 209.084143,22.1470065 209.084143,19.8422239 C209.084143,17.5374413 208.344451,15.6370065 206.822564,14.1409196 C205.300677,12.6043978 203.408602,11.836137 201.105891,11.836137 C198.801809,11.836137 196.910419,12.6043978 195.388533,14.1409196 C193.866646,15.6370065 193.126269,17.5374413 193.126269,19.8422239 M190.082495,19.8422239 C190.082495,16.7685065 191.151929,14.2217891 193.290111,12.1602891 C195.428979,10.0974413 198.020986,9.04613696 201.105891,9.04613696 C204.190111,9.04613696 206.781432,10.0974413 208.9203,12.1602891 C211.058482,14.2217891 212.128602,16.7685065 212.128602,19.8422239 C212.128602,22.9152674 211.058482,25.5024196 208.9203,27.5645935 C206.781432,29.6274413 204.190111,30.6383109 201.105891,30.6383109 C198.020986,30.6383109 195.428979,29.6274413 193.290111,27.5645935 C191.151929,25.5024196 190.082495,22.9152674 190.082495,19.8422239" id="Fill-14" fill="#FFFFFF"></path>
                <path d="M214.075246,26.8775391 C214.897887,26.0688435 216.13185,26.0688435 216.953806,26.8775391 C217.776447,27.6458 217.776447,28.939713 216.953806,29.7484087 C216.13185,30.5159957 214.897887,30.5159957 214.075246,29.7484087 C213.252604,28.939713 213.252604,27.6458 214.075246,26.8775391" id="Fill-15" fill="#000000"></path>
                <polygon id="Fill-16" fill="#FFFFFF" points="81.6874107 30.03125 75.1474107 9.65346739 80.8236371 9.65346739 84.705134 21.6882065 90.3594233 9.65346739 96.1494484 21.6882065 100.031631 9.65346739 105.707172 9.65346739 99.1260396 30.03125 94.0681654 30.03125 90.4074107 21.3809022 86.7871025 30.03125"></polygon>
                <path d="M64.1855069,15.082713 C61.5503119,15.082713 59.4059597,17.190713 59.4059597,19.7812348 C59.4059597,22.3717565 61.5503119,24.4797565 64.1855069,24.4797565 C66.8213874,24.4797565 68.9657396,22.3717565 68.9657396,19.7812348 C68.9657396,17.190713 66.8213874,15.082713 64.1855069,15.082713 M64.1855069,30.5112783 C58.1671987,30.5112783 53.2711107,25.6975174 53.2711107,19.7812348 C53.2711107,13.8642783 58.1671987,9.05186522 64.1855069,9.05186522 C70.2038151,9.05186522 75.1005887,13.8642783 75.1005887,19.7812348 C75.1005887,25.6975174 70.2038151,30.5112783 64.1855069,30.5112783" id="Fill-17" fill="#FFFFFF"></path>
                <polygon id="Fill-18" fill="#FFFFFF" points="29.1917767 30.03125 22.6517767 9.65346739 28.3280031 9.65346739 32.2101855 21.6882065 37.8644748 9.65346739 43.6545 21.6882065 47.5359969 9.65346739 53.2115377 9.65346739 46.6304057 30.03125 41.5725314 30.03125 37.9117767 21.3809022 34.2914686 30.03125"></polygon>
                <path d="M70.5956667,7.56966087 C68.5918491,6.54868261 66.4351572,6.03111739 64.1852327,6.03111739 C61.9359937,6.03111739 59.7793019,6.54868261 57.7754843,7.56966087 L54.9531384,2.21407391 C57.8378679,0.744943478 60.9440252,0.000269565217 64.1852327,0.000269565217 C67.4271258,0.000269565217 70.533283,0.744943478 73.4180126,2.21407391 L70.5956667,7.56966087 Z" id="Fill-19" fill="#FC2150"></path>
            </g>
        </g>
    </g>
</svg>