<?xml version="1.0" encoding="UTF-8"?>
<svg width="236px" height="331px" viewBox="0 0 236 331" version="1.1" xmlns="http://www.w3.org/2000/svg" xmlns:xlink="http://www.w3.org/1999/xlink">
    <!-- Generator: Sketch 51.2 (57519) - http://www.bohemiancoding.com/sketch -->
    <title>Group</title>
    <desc>Created with Sketch.</desc>
    <defs></defs>
    <g id="01-Home_web" stroke="none" stroke-width="1" fill="none" fill-rule="evenodd">
        <g id="Home-0001" transform="translate(-603.000000, -175.000000)" fill="#322A2B">
            <g id="Group" transform="translate(603.000000, 175.000000)">
                <path d="M117.963698,163.477148 C89.6776604,163.477148 66.6603019,186.325148 66.6603019,214.403061 C66.6603019,242.480974 89.6776604,265.328974 117.963698,265.328974 C146.257094,265.328974 169.274453,242.480974 169.274453,214.403061 C169.274453,186.325148 146.257094,163.477148 117.963698,163.477148 M117.963698,330.702887 C53.3635094,330.702887 0.809169811,278.52793 0.809169811,214.403061 C0.809169811,150.270887 53.3635094,98.1105391 117.963698,98.1105391 C182.563887,98.1105391 235.125585,150.270887 235.125585,214.403061 C235.125585,278.52793 182.563887,330.702887 117.963698,330.702887" id="Fill-17"></path>
                <path d="M186.77,82.0453565 C165.261132,70.9792696 142.111321,65.3695304 117.960755,65.3695304 C93.8175472,65.3695304 70.6677358,70.9792696 49.1588679,82.0453565 L18.8639623,23.9977043 C49.8284906,8.07422609 83.1698113,0.00292173913 117.960755,0.00292173913 C152.759057,0.00292173913 186.100377,8.07422609 217.064906,23.9977043 L186.77,82.0453565 Z" id="Fill-19"></path>
            </g>
        </g>
    </g>
</svg>