<?xml version="1.0" encoding="UTF-8"?>
<svg width="32px" height="32px" viewBox="0 0 32 32" version="1.1" xmlns="http://www.w3.org/2000/svg" xmlns:xlink="http://www.w3.org/1999/xlink">
    <!-- Generator: Sketch 52.4 (67378) - http://www.bohemiancoding.com/sketch -->
    <title>behance</title>
    <desc>Created with Sketch.</desc>
    <g id="07-Cookies" stroke="none" stroke-width="1" fill="none" fill-rule="evenodd">
        <g id="Cookies-0003" transform="translate(-140.000000, -3647.000000)">
            <g id="Group" transform="translate(0.000000, 3129.000000)">
                <g id="behance" transform="translate(140.000000, 518.000000)">
                    <rect id="Rectangle-Copy-2" fill="#504F4F" fill-rule="nonzero" x="0" y="0" width="32" height="32" rx="16"></rect>
                    <path d="M15.7183097,11.3516114 C16.0759032,11.8920131 16.2558245,12.5356376 16.2558245,13.2873424 C16.2558245,14.0609061 16.0759032,14.683886 15.7138117,15.1538533 C15.5091513,15.4173751 15.2111567,15.6590378 14.8164544,15.8764129 C15.4158171,16.1132181 15.8667448,16.4860346 16.1737354,16.9960766 C16.4784771,17.5049043 16.6302856,18.1254554 16.6302856,18.8540869 C16.6302856,19.6045773 16.4571114,20.2797758 16.1073895,20.8748248 C15.8858614,21.2695002 15.608108,21.6034563 15.2763781,21.87305 C14.901917,22.1827184 14.4611099,22.3940215 13.9505833,22.5093881 C13.4400567,22.6247548 12.8879234,22.6806165 12.2908097,22.6806165 L7,22.6806165 L7,10 L12.6742669,10 C14.1068899,10.0242877 15.1200715,10.4736105 15.7183097,11.3516114 L15.7183097,11.3516114 Z M9.34122544,12.2028958 L9.34122544,15.0008407 L12.196351,15.0008407 C12.7046286,15.0008407 13.119572,14.8951892 13.4389322,14.6851004 C13.7549189,14.4762261 13.9157236,14.104624 13.9157236,13.572723 C13.9157236,12.9813171 13.7054406,12.5914993 13.2848746,12.4008407 C12.9216586,12.2696871 12.4594858,12.2028958 11.8972319,12.2028958 L9.34122544,12.2028958 L9.34122544,12.2028958 Z M9.34122544,17.098085 L9.34122544,20.4789351 L12.191853,20.4789351 C12.701255,20.4789351 13.0982063,20.4048575 13.3815823,20.2567025 C13.8966069,19.9798225 14.1529947,19.4527791 14.1529947,18.6743578 C14.1529947,18.0125175 13.905603,17.560766 13.4063215,17.3130313 C13.126319,17.1758057 12.7349903,17.1029426 12.2323352,17.098085 L9.34122544,17.098085 L9.34122544,17.098085 Z M23.729304,13.4950023 C24.3365383,13.7876693 24.8358198,14.2503503 25.228273,14.8818309 C25.586991,15.439234 25.8175152,16.0852872 25.9220944,16.8199907 C25.9828178,17.2510976 26.0086815,17.8716488 25.9974364,18.6816441 L19.6720795,18.6816441 C19.7091883,19.6227931 20.0094319,20.2822046 20.5806819,20.6598786 C20.9281548,20.8954694 21.3453473,21.0120504 21.8333837,21.0120504 C22.3484083,21.0120504 22.7700988,20.8699673 23.0928325,20.5833723 C23.2705048,20.4279309 23.4256869,20.2129846 23.5606278,19.937319 L25.8782386,19.937319 C25.8175152,20.4935077 25.5363882,21.0581971 25.0371067,21.633816 C24.2600717,22.5446053 23.1704236,23 21.7715357,23 C20.6155416,23 19.5944885,22.6162541 18.7139988,21.8463335 C17.8278865,21.0776273 17.388204,19.8255955 17.388204,18.0938814 C17.388204,16.4678188 17.7862798,15.2230733 18.5824313,14.3547875 C19.380832,13.4901448 20.4153792,13.0553947 21.6871977,13.0553947 C22.442867,13.0553947 23.1243187,13.201121 23.729304,13.4950023 L23.729304,13.4950023 Z M20.3332901,15.6128912 C20.0128054,15.9699206 19.810394,16.4544605 19.7283049,17.0640822 L23.6404679,17.0640822 C23.5999856,16.4131714 23.3964497,15.9201308 23.0366071,15.5825315 C22.6722666,15.2461467 22.2235879,15.077347 21.6883222,15.077347 C21.1069516,15.077347 20.6537749,15.2558617 20.3332901,15.6128912 L20.3332901,15.6128912 Z M19.1413118,12.1701074 L24.1723601,12.1701074 L24.1723601,10.5926203 L19.1413118,10.5926203 L19.1413118,12.1701074 Z" id="Shape" fill="#000000"></path>
                </g>
            </g>
        </g>
    </g>
</svg>