<?xml version="1.0" encoding="UTF-8"?>
<svg width="32px" height="32px" viewBox="0 0 32 32" version="1.1" xmlns="http://www.w3.org/2000/svg" xmlns:xlink="http://www.w3.org/1999/xlink">
    <!-- Generator: Sketch 52.4 (67378) - http://www.bohemiancoding.com/sketch -->
    <title>medium</title>
    <desc>Created with Sketch.</desc>
    <g id="07-Cookies" stroke="none" stroke-width="1" fill="none" fill-rule="evenodd">
        <g id="Cookies-0003" transform="translate(-16.000000, -3647.000000)">
            <g id="Group" transform="translate(0.000000, 3129.000000)">
                <g id="medium" transform="translate(16.000000, 518.000000)">
                    <rect id="Rectangle" fill="#504F4F" fill-rule="nonzero" x="0" y="0" width="32" height="32" rx="16"></rect>
                    <path d="M24,11.9150303 L23.3675451,11.9150303 C23.1326861,11.9150303 22.7998151,12.2633039 22.7998151,12.4863129 L22.7998151,20.55734 C22.7998151,20.7803489 23.1326861,21.0840207 23.3675451,21.0840207 L24,21.0840207 L24,23 L18.2662968,23 L18.2662968,21.0840207 L19.4664817,21.0840207 L19.4664817,12.5992408 L19.4082293,12.5992408 L16.6056403,23 L14.4364309,23 L11.6699029,12.5992408 L11.5996301,12.5992408 L11.5996301,21.0840207 L12.7998151,21.0840207 L12.7998151,23 L8,23 L8,21.0840207 L8.61488673,21.0840207 C8.86823856,21.0840207 9.20018493,20.7803489 9.20018493,20.55734 L9.20018493,12.4863129 C9.20018493,12.2633039 8.86823856,11.9150303 8.61488673,11.9150303 L8,11.9150303 L8,10 L14.0018493,10 L15.9731854,17.5263158 L16.0268146,17.5263158 L18.0157189,10 L24,10 L24,11.9150303" id="Shape" fill="#000000"></path>
                </g>
            </g>
        </g>
    </g>
</svg>