<?xml version="1.0" encoding="UTF-8"?>
<svg width="32px" height="32px" viewBox="0 0 32 32" version="1.1" xmlns="http://www.w3.org/2000/svg" xmlns:xlink="http://www.w3.org/1999/xlink">
    <!-- Generator: Sketch 52.4 (67378) - http://www.bohemiancoding.com/sketch -->
    <title>twitter</title>
    <desc>Created with Sketch.</desc>
    <g id="07-Cookies" stroke="none" stroke-width="1" fill="none" fill-rule="evenodd">
        <g id="Cookies-0003" transform="translate(-202.000000, -3647.000000)">
            <g id="Group" transform="translate(0.000000, 3129.000000)">
                <g id="twitter" transform="translate(202.000000, 518.000000)">
                    <rect id="Rectangle-Copy-3" fill="#504F4F" fill-rule="nonzero" x="0" y="0" width="32" height="32" rx="16"></rect>
                    <path d="M22.9973587,11.2133468 C23.7177907,10.776542 24.2705875,10.0839232 24.5300229,9.25884732 C23.855491,9.66430738 23.1101133,9.95753286 22.3148442,10.1162791 C21.6802254,9.42871587 20.7731995,9 19.7693843,9 C17.8435757,9 16.2829724,10.5824065 16.2829724,12.5338726 C16.2829724,12.8109201 16.3119094,13.0808898 16.3717791,13.338726 C13.4740858,13.1911021 10.9046781,11.7856421 9.18342431,9.64610718 C8.88307801,10.1698686 8.71145155,10.776542 8.71145155,11.4236603 C8.71145155,12.6491405 9.32711158,13.7310415 10.2630745,14.3660263 C9.69131889,14.3478261 9.15348946,14.1870576 8.68251453,13.9241658 L8.68251453,13.9676441 C8.68251453,15.6804853 9.88389975,17.1092012 11.4814228,17.4327604 C11.1880613,17.5156724 10.8807302,17.5571284 10.5614251,17.5571284 C10.3369138,17.5571284 10.1173916,17.5358948 9.90585197,17.4944388 C10.3488877,18.8978766 11.637084,19.9211325 13.1637612,19.9484328 C11.9693608,20.8968655 10.4656336,21.4610718 8.83218877,21.4610718 C8.5508012,21.4610718 8.27240711,21.445905 8,21.4125379 C9.54364031,22.4145602 11.3766508,23 13.3463638,23 C19.7623995,23 23.268768,17.6147624 23.268768,12.9443883 C23.268768,12.7906977 23.2667723,12.6380182 23.2597875,12.487361 C23.9413042,11.9888777 24.5340142,11.3660263 25,10.6572295 C24.3743617,10.9383215 23.7018254,11.1284125 22.9973587,11.2133468 Z" id="Shape" fill="#000000"></path>
                </g>
            </g>
        </g>
    </g>
</svg>