<?xml version="1.0" encoding="UTF-8"?>
<svg width="4005px" height="1249px" viewBox="0 0 4005 1249" version="1.1" xmlns="http://www.w3.org/2000/svg" xmlns:xlink="http://www.w3.org/1999/xlink">
    <!-- Generator: Sketch 52.4 (67378) - http://www.bohemiancoding.com/sketch -->
    <title>Artboard</title>
    <desc>Created with Sketch.</desc>
    <g id="Artboard" stroke="none" stroke-width="1" fill="none" fill-rule="evenodd">
        <g id="page-01-producto_digital" transform="translate(-3.000000, -41.000000)" fill="#FC4D76">
            <rect id="Rectangle" x="0" y="0" width="4014" height="688"></rect>
        </g>
        <g id="Illustration" transform="translate(1714.000000, 785.000000)" fill-rule="nonzero" stroke="#FFFFFF">
            <path d="M5,71 L581,71" id="Line-2" stroke-width="2" stroke-linecap="square" stroke-dasharray="4,8"></path>
            <ellipse id="Oval" stroke-width="3" cx="39.5" cy="35" rx="38" ry="33.5"></ellipse>
        </g>
        <g id="Section-2" transform="translate(1070.000000, 473.000000)">
            <path d="M1582.47722,769 C1379.76091,665.275374 1161.57906,612.694177 933.965324,612.694177 C706.420939,612.694177 488.239094,665.275374 285.522777,769 L0,224.907853 C291.833822,75.6539352 606.068387,0 933.965324,0 C1261.93161,0 1576.16618,75.6539352 1868,224.907853 L1582.47722,769 Z" id="bg-section" fill="#0F0506" transform="translate(934.000000, 384.500000) scale(1, -1) translate(-934.000000, -384.500000) "></path>
            <g id="Illustration" transform="translate(641.000000, 332.000000)" fill-rule="nonzero" stroke="#FFFFFF">
                <path d="M5,71 L581,71" id="Line-2" stroke-width="2" stroke-linecap="square" stroke-dasharray="4,8"></path>
                <ellipse id="Oval" stroke-width="3" cx="39.5" cy="35" rx="38" ry="33.5"></ellipse>
            </g>
        </g>
    </g>
</svg>