<?xml version="1.0" encoding="UTF-8"?>
<svg width="32px" height="32px" viewBox="0 0 32 32" version="1.1" xmlns="http://www.w3.org/2000/svg" xmlns:xlink="http://www.w3.org/1999/xlink">
    <!-- Generator: Sketch 52.4 (67378) - http://www.bohemiancoding.com/sketch -->
    <title>linkedin</title>
    <desc>Created with Sketch.</desc>
    <g id="07-Cookies" stroke="none" stroke-width="1" fill="none" fill-rule="evenodd">
        <g id="Cookies-0003" transform="translate(-78.000000, -3647.000000)">
            <g id="Group" transform="translate(0.000000, 3129.000000)">
                <g id="linkedin" transform="translate(78.000000, 518.000000)">
                    <rect id="Rectangle-Copy" fill="#504F4F" fill-rule="nonzero" x="0" y="0" width="32" height="32" rx="16"></rect>
                    <path d="M8.40357479,12.1304905 L11.5221072,12.1304905 L11.5221072,22.9989755 L8.40357479,22.9989755 L8.40357479,12.1304905 Z M9.88334901,10.7710334 L9.8607714,10.7710334 C8.73189087,10.7710334 8,9.94019721 8,8.88807786 C8,7.81444487 8.75352775,7 9.90498589,7 C11.0555033,7 11.7629351,7.81239595 11.7855127,8.88500448 C11.7855127,9.93712383 11.0555033,10.7710334 9.88334901,10.7710334 L9.88334901,10.7710334 Z M24,23 L20.4637817,23 L20.4637817,17.3746959 C20.4637817,15.9025483 19.9106303,14.8985786 18.6942615,14.8985786 C17.7638758,14.8985786 17.2464722,15.5757459 17.0056444,16.2303752 C16.915334,16.4639519 16.929445,16.7907543 16.929445,17.1185811 L16.929445,23 L13.4261524,23 C13.4261524,23 13.4713076,13.0361122 13.4261524,12.1304905 L16.929445,12.1304905 L16.929445,13.8362146 C17.1364064,13.0904085 18.2558796,12.0259956 20.042333,12.0259956 C22.2587018,12.0259956 24,13.5903445 24,16.9556922 L24,23 L24,23 Z" id="Shape" fill="#000000"></path>
                </g>
            </g>
        </g>
    </g>
</svg>